TITLE ""
FILE "Disc4Track56.mp3" MP3
  TRACK 01 AUDIO
    TITLE "Disc4Track56_01"
    INDEX 01 00:00:00
  TRACK 02 AUDIO
    TITLE "Disc4Track56_02"
    INDEX 01 00:01:04
  TRACK 03 AUDIO
    TITLE "Disc4Track56_03"
    INDEX 01 00:02:15
  TRACK 04 AUDIO
    TITLE "Disc4Track56_04"
    INDEX 01 00:03:32
  TRACK 05 AUDIO
    TITLE "Disc4Track56_05"
    INDEX 01 00:07:46
  TRACK 06 AUDIO
    TITLE "Disc4Track56_06"
    INDEX 01 00:08:02
  TRACK 07 AUDIO
    TITLE "Disc4Track56_07"
    INDEX 01 00:09:21
  TRACK 08 AUDIO
    TITLE "Disc4Track56_08"
    INDEX 01 00:11:63
  TRACK 09 AUDIO
    TITLE "Disc4Track56_09"
    INDEX 01 00:13:05
  TRACK 10 AUDIO
    TITLE "Disc4Track56_10"
    INDEX 01 00:15:31
  TRACK 11 AUDIO
    TITLE "Disc4Track56_11"
    INDEX 01 00:15:63
  TRACK 12 AUDIO
    TITLE "Disc4Track56_12"
    INDEX 01 00:16:68
  TRACK 13 AUDIO
    TITLE "Disc4Track56_13"
    INDEX 01 00:18:06
  TRACK 14 AUDIO
    TITLE "Disc4Track56_14"
    INDEX 01 00:19:15
  TRACK 15 AUDIO
    TITLE "Disc4Track56_15"
    INDEX 01 00:19:53
  TRACK 16 AUDIO
    TITLE "Disc4Track56_16"
    INDEX 01 00:20:74
  TRACK 17 AUDIO
    TITLE "Disc4Track56_17"
    INDEX 01 00:22:14
  TRACK 18 AUDIO
    TITLE "Disc4Track56_18"
    INDEX 01 00:23:33
  TRACK 19 AUDIO
    TITLE "Disc4Track56_19"
    INDEX 01 00:28:61
  TRACK 20 AUDIO
    TITLE "Disc4Track56_20"
    INDEX 01 00:29:18
  TRACK 21 AUDIO
    TITLE "Disc4Track56_21"
    INDEX 01 00:30:37
  TRACK 22 AUDIO
    TITLE "Disc4Track56_22"
    INDEX 01 00:31:50
  TRACK 23 AUDIO
    TITLE "Disc4Track56_23"
    INDEX 01 00:32:69
  TRACK 24 AUDIO
    TITLE "Disc4Track56_24"
    INDEX 01 00:36:12
  TRACK 25 AUDIO
    TITLE "Disc4Track56_25"
    INDEX 01 00:36:43
  TRACK 26 AUDIO
    TITLE "Disc4Track56_26"
    INDEX 01 00:37:64
  TRACK 27 AUDIO
    TITLE "Disc4Track56_27"
    INDEX 01 00:41:43
  TRACK 28 AUDIO
    TITLE "Disc4Track56_28"
    INDEX 01 00:42:62
  TRACK 29 AUDIO
    TITLE "Disc4Track56_29"
    INDEX 01 00:48:68
  TRACK 30 AUDIO
    TITLE "Disc4Track56_30"
    INDEX 01 00:49:24
  TRACK 31 AUDIO
    TITLE "Disc4Track56_31"
    INDEX 01 00:50:47
  TRACK 32 AUDIO
    TITLE "Disc4Track56_32"
    INDEX 01 00:53:14
  TRACK 33 AUDIO
    TITLE "Disc4Track56_33"
    INDEX 01 00:54:33
  TRACK 34 AUDIO
    TITLE "Disc4Track56_34"
    INDEX 01 01:00:42
  TRACK 35 AUDIO
    TITLE "Disc4Track56_35"
    INDEX 01 01:01:00
  TRACK 36 AUDIO
    TITLE "Disc4Track56_36"
    INDEX 01 01:02:23
  TRACK 37 AUDIO
    TITLE "Disc4Track56_37"
    INDEX 01 01:04:63
  TRACK 38 AUDIO
    TITLE "Disc4Track56_38"
    INDEX 01 01:06:11
  TRACK 39 AUDIO
    TITLE "Disc4Track56_39"
    INDEX 01 01:06:54
  TRACK 40 AUDIO
    TITLE "Disc4Track56_40"
    INDEX 01 01:08:14
  TRACK 41 AUDIO
    TITLE "Disc4Track56_41"
    INDEX 01 01:10:52
  TRACK 42 AUDIO
    TITLE "Disc4Track56_42"
    INDEX 01 01:12:10
  TRACK 43 AUDIO
    TITLE "Disc4Track56_43"
    INDEX 01 01:16:66
